<svg width="64" height="26" viewBox="0 0 64 26" fill="none" xmlns="http://www.w3.org/2000/svg">
<path fill-rule="evenodd" clip-rule="evenodd" d="M60.3683 20.1711L59.2803 20.4748H57.3044C57.3085 20.3825 57.3181 20.2913 57.3181 20.1978C57.3181 16.9987 54.7629 14.3957 51.6217 14.3957C48.4809 14.3957 45.9257 16.9987 45.9257 20.1978C45.9257 20.2913 45.935 20.3825 45.9394 20.4748H15.7625C15.7669 20.3825 15.7762 20.2913 15.7762 20.1978C15.7762 16.9987 13.221 14.3957 10.0798 14.3957C6.97267 14.3957 4.44338 16.9437 4.38862 20.095C2.67024 20.0433 1.47977 18.9679 1.47977 17.4399V15.2514C1.47977 14.7235 1.63108 14.2118 1.9163 13.7721L2.01471 13.6206C2.32065 13.1484 2.52671 12.6277 2.6277 12.0723L2.89369 10.6076H6.84134L10.0228 2.72017C10.0428 2.71603 10.0621 2.71 10.0817 2.70548C14.3908 1.77513 20.355 1.32107 24.9274 1.5773C33.1587 2.03777 39.4166 4.13397 41.0077 5.01986C45.0334 7.26038 49.5723 8.93493 54.4984 9.99716C55.4799 10.2086 56.354 10.4629 57.1328 10.738C57.1587 12.1951 57.6174 13.3097 58.5041 14.0532C59.4179 14.8196 60.5999 15.0118 61.5573 15.0118C61.841 15.0118 62.1011 14.9941 62.3327 14.9703V17.5481C62.3327 18.7697 61.5247 19.8485 60.3683 20.1711ZM51.622 24.4927C49.2973 24.4927 47.4058 22.5661 47.4058 20.1978C47.4058 17.8299 49.2973 15.9029 51.622 15.9029C53.9471 15.9029 55.8386 17.8299 55.8386 20.1978C55.8386 22.5661 53.9471 24.4927 51.622 24.4927ZM10.08 24.4927C7.75496 24.4927 5.86345 22.5661 5.86345 20.1978C5.86345 17.8299 7.75496 15.9029 10.08 15.9029C12.4051 15.9029 14.2966 17.8299 14.2966 20.1978C14.2966 22.5661 12.4051 24.4927 10.08 24.4927ZM3.9979 7.47026L7.78314 3.9109C7.86342 3.83554 7.94592 3.76319 8.03101 3.69348L5.84946 9.10035H3.16775L3.19401 8.95452C3.29723 8.38817 3.58245 7.86101 3.9979 7.47026ZM61.9443 13.4917C61.1893 13.5441 60.1468 13.4812 59.4413 12.8865C59.0321 12.5421 58.7761 12.0286 58.6692 11.3612C60.2015 12.0681 61.2085 12.8131 61.7827 13.3161C61.843 13.3692 61.8929 13.431 61.9443 13.4917ZM62.7481 12.174C61.6531 11.2139 59.1652 9.46284 54.8047 8.52232C50.0199 7.49061 45.6165 5.8673 41.7173 3.69725C39.9645 2.7213 33.5734 0.551623 25.0085 0.0723189C20.3194 -0.189942 14.198 0.275797 9.77461 1.23101C8.6511 1.47368 7.61526 2.01742 6.77956 2.80345L2.99394 6.36243C2.34506 6.97287 1.89928 7.79583 1.73873 8.6802L1.17235 11.7983C1.10798 12.154 0.975538 12.4875 0.780208 12.7897L0.681803 12.9404C0.236023 13.6281 0 14.427 0 15.2514V17.4399C0 19.8546 1.89965 21.6075 4.51699 21.6075H4.56065C5.18104 24.1265 7.4166 26 10.0798 26C12.6095 26 14.757 24.3103 15.4976 21.982H46.2043C46.9449 24.3103 49.0924 26 51.6217 26C54.1514 26 56.2989 24.3103 57.0395 21.982H59.4789L60.7593 21.6248C62.5569 21.1233 63.8124 19.4468 63.8124 17.5481V14.5332C63.8124 13.6266 63.4244 12.7667 62.7481 12.174Z" fill="#47505A"/>
<path fill-rule="evenodd" clip-rule="evenodd" d="M27.8797 4.38625C33.3522 4.68996 37.9713 6.3355 40.7333 7.56767H27.8797V4.38625ZM27.1398 9.07492H43.8752C44.2071 9.07492 44.4982 8.84996 44.5877 8.5244C44.6773 8.19921 44.5433 7.85292 44.2596 7.67733C43.9618 7.49269 36.8497 3.1537 27.1631 2.8466C26.9548 2.84246 26.7684 2.91669 26.6248 3.05875C26.4813 3.20043 26.3999 3.39599 26.3999 3.59985V8.3213C26.3999 8.7373 26.7314 9.07492 27.1398 9.07492Z" fill="#47505A"/>
<path fill-rule="evenodd" clip-rule="evenodd" d="M23.3741 7.5678H11.7949L12.1752 5.29562C16.1757 4.334 18.9584 4.08907 23.3741 4.31365V7.5678ZM24.8539 8.32142V3.59997C24.8539 3.20093 24.5484 2.87084 24.157 2.84748C18.98 2.53962 15.9879 2.79623 11.3525 3.94664C11.0658 4.01785 10.8479 4.256 10.7984 4.55255L10.1891 8.19481C10.1528 8.41374 10.2127 8.63794 10.3533 8.80751C10.4939 8.97707 10.7007 9.07504 10.9186 9.07504H24.1141C24.5225 9.07504 24.8539 8.73742 24.8539 8.32142Z" fill="#47505A"/>
<path fill-rule="evenodd" clip-rule="evenodd" d="M43.8751 10.6306C43.4667 10.6306 43.1353 10.9682 43.1353 11.3842V15.4188C43.1353 15.8351 43.4667 16.1724 43.8751 16.1724C44.2836 16.1724 44.615 15.8351 44.615 15.4188V11.3842C44.615 10.9682 44.2836 10.6306 43.8751 10.6306Z" fill="#47505A"/>
<path fill-rule="evenodd" clip-rule="evenodd" d="M25.7462 16.1724C26.1546 16.1724 26.4861 15.8348 26.4861 15.4188V11.3842C26.4861 10.9679 26.1546 10.6306 25.7462 10.6306C25.3378 10.6306 25.0063 10.9679 25.0063 11.3842V15.4188C25.0063 15.8348 25.3378 16.1724 25.7462 16.1724Z" fill="#47505A"/>
<path fill-rule="evenodd" clip-rule="evenodd" d="M11.2819 10.2373C10.8735 10.2373 10.542 10.5749 10.542 10.9909V12.5313C10.542 12.9477 10.8735 13.285 11.2819 13.285C11.6903 13.285 12.0218 12.9477 12.0218 12.5313V10.9909C12.0218 10.5749 11.6903 10.2373 11.2819 10.2373Z" fill="#47505A"/>
<path fill-rule="evenodd" clip-rule="evenodd" d="M43.8754 17.8643H17.5163C17.1078 17.8643 16.7764 18.2019 16.7764 18.6179C16.7764 19.0339 17.1078 19.3715 17.5163 19.3715H43.8754C44.2838 19.3715 44.6153 19.0339 44.6153 18.6179C44.6153 18.2019 44.2838 17.8643 43.8754 17.8643Z" fill="#47505A"/>
</svg>
