<svg width="97" height="36" viewBox="0 0 97 36" fill="none" xmlns="http://www.w3.org/2000/svg">
<path fill-rule="evenodd" clip-rule="evenodd" d="M85.4872 26.8918H93.4847C93.7845 26.8918 94.0283 26.6347 94.0283 26.3183V20.7719H90.1129C88.9039 20.7719 87.8507 19.9541 87.4914 18.7366C87.2292 17.8473 87.3791 16.9076 87.902 16.1574C88.417 15.4196 89.207 14.9931 90.0737 14.9808C88.1712 13.9461 85.368 13.0002 81.2275 12.5273L67.6749 10.9784L67.4026 10.6458C67.3861 10.6262 65.5191 8.41593 61.2186 6.2884C57.2339 4.31739 50.2939 2.02048 39.837 2.25358C19.9129 2.70413 14.149 9.39026 14.0929 9.45845L13.7766 9.84025L13.2897 9.84696H7.15712C6.3534 9.84696 5.61272 10.3428 5.2694 11.1092L5.22384 11.2109L7.36004 11.5144C8.20456 11.6346 8.92457 12.155 9.33465 12.9432C9.74419 13.7314 9.77492 14.6515 9.4173 15.4671C8.98232 16.4615 8.03131 17.0937 7.00454 17.0937C6.93195 17.0937 6.85778 17.091 6.78413 17.0842L2.89478 16.7399C2.22086 18.9228 1.97874 21.2365 2.19967 23.5356C2.27384 24.3076 2.83492 24.9174 3.56394 25.0186L10.4393 25.9734C11.02 21.8614 14.3795 18.693 18.4368 18.693C22.9005 18.693 26.5323 22.5249 26.5323 27.2345C26.5323 27.3174 26.5271 27.3989 26.5218 27.4804C26.5185 27.5307 26.5153 27.5811 26.5133 27.6319H69.3321C69.33 27.5875 69.3272 27.5435 69.3244 27.4995L69.3243 27.4988L69.3243 27.4985C69.3187 27.4109 69.3131 27.3235 69.3131 27.2345C69.3131 22.5249 72.9444 18.693 77.4086 18.693C81.7626 18.693 85.315 22.3416 85.4872 26.8918ZM71.4323 27.2344C71.4323 30.7113 74.1131 33.5404 77.4086 33.5404C80.704 33.5404 83.3848 30.7113 83.3848 27.2344C83.3848 23.758 80.704 20.9289 77.4086 20.9289C74.1131 20.9289 71.4323 23.758 71.4323 27.2344ZM12.46 27.2344C12.46 30.7113 15.1414 33.5404 18.4368 33.5404C21.7318 33.5404 24.4131 30.7113 24.4131 27.2344C24.4131 23.758 21.7318 20.9289 18.4368 20.9289C15.1414 20.9289 12.46 23.758 12.46 27.2344ZM7.07768 13.7302L4.2755 13.3322L3.72238 14.5693L6.96112 14.8561C7.18629 14.8767 7.39981 14.7443 7.49358 14.529C7.59266 14.3032 7.52537 14.1132 7.47663 14.0192C7.42789 13.9259 7.31186 13.7638 7.07768 13.7302ZM93.8009 18.5359C93.6409 18.1871 93.375 17.7271 92.94 17.2145H90.1129C89.8374 17.2145 89.6785 17.3827 89.6091 17.4834C89.5386 17.584 89.4332 17.7942 89.5147 18.072C89.5969 18.3498 89.8369 18.5359 90.1129 18.5359H93.8009ZM93.8936 15.0517C95.9048 17.0177 96.1273 18.8383 96.1422 18.9842L96.1475 19.0999V26.3182C96.1475 27.8672 94.9527 29.1277 93.4846 29.1277H85.2969C84.4773 32.9283 81.255 35.7764 77.4085 35.7764C73.8159 35.7764 70.7658 33.2922 69.7109 29.8678H26.1344C25.0795 33.2922 22.0294 35.7764 18.4368 35.7764C14.2894 35.7764 10.8668 32.4683 10.4 28.2233L3.28785 27.2355C1.57974 26.9985 0.265277 25.5697 0.0909688 23.7608C-0.235925 20.3621 0.321967 16.9333 1.70372 13.8443L3.35302 10.1555C4.0439 8.60986 5.53691 7.61094 7.15707 7.61094H12.8457C14.4192 6.04185 21.3126 0.436257 39.7914 0.0181298C58.8826 -0.417326 67.0761 7.11959 68.7053 8.84688L81.4563 10.3042C88.1934 11.0745 91.8396 13.0846 93.8163 14.9785H93.8936V15.0517ZM47.1874 10.6438H61.8187C58.5567 8.8796 53.0344 6.52288 46.1363 6.01308L47.1874 10.6438ZM46.3513 12.8798C45.8613 12.8798 45.4348 12.5248 45.3203 12.0223L43.7452 5.07959C43.6678 4.73973 43.7457 4.38197 43.955 4.11198C44.1643 3.84198 44.479 3.69329 44.8112 3.70167C57.5251 4.15614 65.9734 10.5868 66.3268 10.8601C66.6961 11.1464 66.8498 11.65 66.7072 12.1101C66.5647 12.569 66.1584 12.8798 65.7001 12.8798H46.3513ZM31.9197 6.54973L30.4002 8.84049L29.6527 10.6438H41.5464L40.4884 5.99968C35.8022 6.19477 32.973 6.4452 31.9197 6.54973ZM43.7235 12.4538C43.5227 12.7227 43.2154 12.8797 42.8912 12.8797H28.0331C27.6755 12.8797 27.3428 12.6897 27.1462 12.3738C26.9507 12.058 26.9194 11.6595 27.062 11.314L28.5004 7.84264C28.529 7.77501 28.5629 7.71016 28.6032 7.64923L30.4623 4.84756C30.6366 4.58483 30.91 4.41378 31.212 4.378C31.3444 4.36179 34.544 3.98727 41.2774 3.73069C41.7791 3.71224 42.2284 4.06944 42.346 4.58707L43.9216 11.5001C43.9974 11.8333 43.9243 12.1849 43.7235 12.4538ZM65.3518 15.9321V20.7272C65.3518 21.3443 65.8265 21.8451 66.4114 21.8451C66.9963 21.8451 67.471 21.3443 67.471 20.7272V15.9321C67.471 15.315 66.9963 14.8141 66.4114 14.8141C65.8265 14.8141 65.3518 15.315 65.3518 15.9321ZM43.2804 15.5322C43.2804 14.9151 43.7551 14.4142 44.34 14.4142C44.9249 14.4142 45.3996 14.9151 45.3996 15.5322V20.3273C45.3996 20.9444 44.9249 21.4453 44.34 21.4453C43.7551 21.4453 43.2804 20.9444 43.2804 20.3273V15.5322ZM25.3944 15.3485C24.8095 15.3485 24.3348 15.8494 24.3348 16.4665V18.7316C24.3348 19.3493 24.8095 19.8496 25.3944 19.8496C25.9794 19.8496 26.4541 19.3493 26.4541 18.7316V16.4665C26.4541 15.8494 25.9794 15.3485 25.3944 15.3485ZM23.6386 10.6438H20.4555C21.6778 9.69634 23.3038 8.59848 25.0754 7.84719L23.6386 10.6438ZM28.081 5.35239C27.841 5.00414 27.4325 4.83253 27.0299 4.91079C21.7381 5.94996 16.9677 10.7528 16.7669 10.9574C16.4559 11.2733 16.3584 11.7573 16.52 12.1805C16.6816 12.6031 17.071 12.8798 17.5028 12.8798H24.269C24.6579 12.8798 25.0155 12.6551 25.201 12.2945L28.1557 6.54305C28.3507 6.16405 28.321 5.70065 28.081 5.35239ZM28.8237 24.1533H66.5738C67.1587 24.1533 67.6334 24.6542 67.6334 25.2713C67.6334 25.8885 67.1587 26.3893 66.5738 26.3893H28.8237C28.2387 26.3893 27.764 25.8885 27.764 25.2713C27.764 24.6542 28.2387 24.1533 28.8237 24.1533Z" fill="#5D5D5D"/>
</svg>
