<svg width="90" height="36" viewBox="0 0 90 36" fill="none" xmlns="http://www.w3.org/2000/svg">
<path fill-rule="evenodd" clip-rule="evenodd" d="M83.7821 26.4635L85.4562 26.2509C86.1551 26.1623 86.6885 25.5893 86.7255 24.8883L86.9285 21.0306H82.8204L78.2871 15.6818H84.2161C83.6775 15.2742 83.0925 14.9201 82.4774 14.6966C80.1428 13.8468 69.3563 13.1478 65.397 12.9498L65.0936 12.9347L52.1818 3.78989C50.7683 2.78866 49.1139 2.21883 47.3971 2.14209C36.2744 1.6464 18.3291 3.99574 13.0938 4.72786C12.0238 4.87771 11.0252 5.32725 10.206 6.02879L4.35509 11.0417C3.76234 11.5498 3.28877 12.1663 2.94738 12.8523H9.0752L5.86896 16.8614V19.2952H2.18446C2.20423 20.537 2.27553 21.6409 2.35515 22.5141C2.48213 23.9057 3.54325 25.0475 4.93534 25.2912L7.92614 25.8144C8.75723 22.1942 12.0093 19.4829 15.891 19.4829C20.3993 19.4829 24.0672 23.1373 24.0672 27.6296C24.0672 27.7249 24.0608 27.8186 24.0545 27.9126C24.0516 27.9563 24.0487 28 24.0463 28.0439H67.5432C67.5409 28 67.538 27.9563 67.535 27.9126L67.535 27.9124C67.5287 27.8185 67.5224 27.7248 67.5224 27.6296C67.5224 23.1373 71.1902 19.4829 75.6991 19.4829C79.8093 19.4829 83.2117 22.5234 83.7821 26.4635ZM69.6042 27.6297C69.6042 30.9782 72.3384 33.7024 75.6992 33.7024C79.06 33.7024 81.7943 30.9782 81.7943 27.6297C81.7943 24.2812 79.06 21.557 75.6992 21.557C72.3384 21.557 69.6042 24.2812 69.6042 27.6297ZM9.79608 27.6297C9.79608 30.9782 12.5303 33.7024 15.8911 33.7024C19.2514 33.7024 21.9856 30.9782 21.9856 27.6297C21.9856 24.2812 19.2514 21.557 15.8911 21.557C12.5303 21.557 9.79608 24.2812 9.79608 27.6297ZM3.78736 16.1365L4.75532 14.9263H2.35623C2.27817 15.7113 2.23029 16.4797 2.20427 17.2212H3.78736V16.1365ZM87.0377 18.9567L87.0513 18.6943C86.8858 18.4589 86.6074 18.0819 86.2446 17.6495C86.1072 17.7159 85.9558 17.7558 85.7929 17.7558H82.7693L83.7867 18.9567H87.0377ZM83.192 12.7486C86.4815 13.9459 88.8879 17.6884 88.9889 17.8471L89.1658 18.126L88.8046 24.9967C88.7151 26.7 87.4177 28.0927 85.7197 28.3084L83.8196 28.55C83.3591 32.6099 79.8952 35.7764 75.6992 35.7764C72.0615 35.7764 68.9744 33.396 67.9159 30.118H23.6738C22.6153 33.396 19.5282 35.7764 15.8911 35.7764C11.4687 35.7764 7.86431 32.2584 7.72796 27.8848L4.57584 27.3336C2.26002 26.9292 0.493745 25.0242 0.281938 22.7018C0.108122 20.7958 -0.0318686 17.8554 0.288704 14.6749C0.493225 12.6397 1.45598 10.7908 2.99848 9.4691L8.84944 4.45621C9.97092 3.49543 11.3386 2.87893 12.8046 2.67412C18.0836 1.93525 36.184 -0.435865 47.4909 0.0701936C49.6079 0.16508 51.6469 0.866615 53.3882 2.09962L65.8046 10.8939C68.2656 11.0215 80.2887 11.6914 83.192 12.7486ZM41.3871 19.8013V14.7825C41.3871 14.1928 41.9156 13.7143 42.5668 13.7143C43.218 13.7143 43.7465 14.1928 43.7465 14.7825V19.8013C43.7465 20.391 43.218 20.8695 42.5668 20.8695C41.9156 20.8695 41.3871 20.391 41.3871 19.8013ZM62.0322 19.8013C62.0322 20.391 61.5037 20.8695 60.8525 20.8695C60.2013 20.8695 59.6728 20.391 59.6728 19.8013V14.7825C59.6728 14.1928 60.2013 13.7143 60.8525 13.7143C61.5037 13.7143 62.0322 14.1928 62.0322 14.7825V19.8013ZM23.1013 15.5031C22.4501 15.5031 21.9216 15.9601 21.9216 16.5231V18.657C21.9216 19.2206 22.4501 19.677 23.1013 19.677C23.7525 19.677 24.281 19.2206 24.281 18.657V16.5231C24.281 15.9601 23.7525 15.5031 23.1013 15.5031ZM48.825 5.63907L54.5878 10.4603H43.9695L43.1042 5.63907H48.825ZM42.0494 11.6694C42.1378 12.1626 42.5752 12.5218 43.0863 12.5218H57.4404C57.8815 12.5218 58.2752 12.2528 58.4278 11.8477C58.5805 11.4431 58.4594 10.9875 58.1241 10.7072L49.897 3.82453C49.707 3.66528 49.4644 3.57767 49.2133 3.57767H41.8499C41.5388 3.57767 41.2441 3.71218 41.0435 3.94564C40.8435 4.1791 40.7593 4.48677 40.813 4.78671L42.0494 11.6694ZM14.1609 10.4772H20.2695L21.7175 6.43668L16.1737 7.18957L14.1609 10.4772ZM24.221 5.53969L21.9621 11.8429C21.8162 12.2498 21.4288 12.5217 20.9941 12.5217H12.3317C11.9602 12.5217 11.6175 12.3224 11.4355 11.9998C11.2536 11.6778 11.2608 11.2832 11.454 10.9674L14.6728 5.71092C14.8341 5.4482 15.1049 5.27135 15.4117 5.22995L23.1142 4.18367C23.4698 4.13409 23.8248 4.27516 24.0509 4.55219C24.2775 4.82923 24.3418 5.20337 24.221 5.53969ZM26.2142 10.4141L27.7524 6.19183L37.341 5.73077L37.9822 10.4141H26.2142ZM39.953 12.1598C40.1496 11.9295 40.2387 11.6244 40.1972 11.3225L39.2605 4.48666C39.187 3.94762 38.7238 3.54452 38.1866 3.57982L26.9708 4.1194C26.5563 4.13889 26.1935 4.40921 26.0496 4.80545L23.7558 11.1017C23.6378 11.4247 23.6829 11.7862 23.8764 12.0697C24.07 12.3532 24.3878 12.5218 24.7262 12.5218H39.172C39.4716 12.5218 39.7563 12.39 39.953 12.1598ZM27.6871 24.4472H64.5245C65.1023 24.4472 65.5712 24.8479 65.5712 25.3416C65.5712 25.8353 65.1023 26.236 64.5245 26.236H27.6871C27.1093 26.236 26.6404 25.8353 26.6404 25.3416C26.6404 24.8479 27.1093 24.4472 27.6871 24.4472Z" fill="#5D5D5D"/>
</svg>
